<?xml version="1.0" encoding="utf-8"?>
<!-- Generator: Adobe Illustrator 22.1.0, SVG Export Plug-In . SVG Version: 6.00 Build 0)  -->
<svg version="1.1" id="图层_1" xmlns="http://www.w3.org/2000/svg" xmlns:xlink="http://www.w3.org/1999/xlink" x="0px" y="0px"
	 viewBox="0 0 11 11" style="enable-background:new 0 0 11 11;" xml:space="preserve">
<style type="text/css">
	.st0{fill:#666b93;}
</style>
<title>关闭</title>
<desc>Created with Sketch.</desc>
<g id="关闭">
	<path id="Combined-Shape" class="st0" d="M5.5,3.9l2.6-2.6c0.4-0.4,1-0.4,1.4,0l0.3,0.3c0.4,0.4,0.4,1,0,1.4L7.1,5.5l2.6,2.6
		c0.4,0.4,0.4,1,0,1.4L9.4,9.7c-0.4,0.4-1,0.4-1.4,0L5.5,7.1L2.9,9.7c-0.4,0.4-1,0.4-1.4,0L1.3,9.4c-0.4-0.4-0.4-1,0-1.4l2.6-2.6
		L1.3,2.9c-0.4-0.4-0.4-1,0-1.4l0.3-0.3c0.4-0.4,1-0.4,1.4,0L5.5,3.9z"/>
</g>
</svg>
