<?xml version="1.0" encoding="UTF-8"?>
<svg width="16px" height="16px" viewBox="0 0 16 16" version="1.1" xmlns="http://www.w3.org/2000/svg" xmlns:xlink="http://www.w3.org/1999/xlink">
    <!-- Generator: Sketch 50.2 (55047) - http://www.bohemiancoding.com/sketch -->
    <title>撤销</title>
    <desc>Created with Sketch.</desc>
    <defs></defs>
    <g id="撤销" stroke="none" stroke-width="1" fill="none" fill-rule="evenodd">
        <path d="M4.21631633,12.3964224 L1,7.99999218 L4.21631633,3.60356198 C4.48525998,3.23929067 4.92367543,3 5.42105093,3 L13.5263217,3.00715025 C14.3405288,3.00715025 15,3.63929757 15,4.42857814 L15,11.5714219 C15,12.3607024 14.3405288,12.9928498 13.5263217,12.9928498 L5.42105093,13 C4.92369158,13 4.48525998,12.7607093 4.21631633,12.3964224 Z M9.99266958,7.98826909 L11.8970621,6.09655404 C12.0337341,5.96045532 12.0344287,5.73993042 11.8984377,5.60313656 C11.7620789,5.46604283 11.5420962,5.46566118 11.4054242,5.6017599 L9.50033708,7.49378845 L7.62032353,5.60282306 C7.48471384,5.46673798 7.26403655,5.46604283 7.12736454,5.60212792 C6.99100577,5.73822663 6.9906789,5.95907866 7.12666994,6.09585889 L9.00594804,7.98612913 L7.10294471,9.87608587 C6.96625908,10.0121846 6.9655781,10.2327231 7.10155552,10.3695033 C7.16954423,10.4378594 7.25913352,10.4724122 7.34872281,10.4724122 C7.4376856,10.4724122 7.52652581,10.4386091 7.594569,10.37088 L9.49826691,8.48028264 L11.4044163,10.3974455 C11.4724051,10.4658152 11.5616811,10.5 11.6512704,10.5 C11.7405328,10.5 11.8294411,10.4658152 11.8974298,10.3981406 C12.0337886,10.2620556 12.0341018,10.041517 11.8981244,9.90473679 L9.99266958,7.98826909 Z" id="Combined-Shape" fill="#697FD5" fill-rule="nonzero"></path>
    </g>
</svg>