<?xml version="1.0" encoding="utf-8"?>
<!-- Generator: Adobe Illustrator 21.1.0, SVG Export Plug-In . SVG Version: 6.00 Build 0)  -->
<svg version="1.1" id="图层_1" xmlns="http://www.w3.org/2000/svg" xmlns:xlink="http://www.w3.org/1999/xlink" x="0px" y="0px"
	 viewBox="0 0 16 16" style="enable-background:new 0 0 16 16;" xml:space="preserve">
<style type="text/css">
	.st0{fill:#5D6588;}
</style>
<title>baitian</title>
<desc>Created with Sketch.</desc>
<g id="baitian">
	<path id="Shape" class="st0" d="M8,13.2c-2.8,0-5.2-2.4-5.2-5.2S5.2,2.8,8,2.8s5.2,2.4,5.2,5.2S10.8,13.2,8,13.2z M8.5,0.4v1.5H7.5
		V0.4C7.5,0.2,7.7,0,7.9,0h0.1C8.3,0,8.5,0.2,8.5,0.4z M8.5,14.1v1.5c0,0.2-0.2,0.4-0.4,0.4H7.9c-0.2,0-0.4-0.2-0.4-0.4v-1.5H8.5z
		 M16,7.9v0.1c0,0.2-0.2,0.4-0.4,0.4h-1.5V7.5h1.5C15.8,7.5,16,7.7,16,7.9z M1.9,8.5H0.4C0.2,8.5,0,8.3,0,8.1V7.9
		c0-0.2,0.2-0.4,0.4-0.4h1.5V8.5z M13.6,2.3L13.6,2.3c0.2,0.2,0.2,0.5,0.1,0.7l-1,1l-0.7-0.7l1-1C13.2,2.1,13.5,2.1,13.6,2.3z
		 M3.4,12l0.7,0.7l-1,1c-0.2,0.2-0.4,0.2-0.6,0l-0.1-0.1c-0.2-0.2-0.2-0.4,0-0.6l0,0L3.4,12z M13.7,13.6L13.7,13.6
		c-0.2,0.2-0.5,0.2-0.7,0.1l-1-1l0.7-0.7l1,1C13.9,13.2,13.9,13.5,13.7,13.6z M4.1,3.4L3.4,4.1L2.3,2.9c-0.2-0.2-0.2-0.4,0-0.6
		l0.1-0.1c0.2-0.2,0.4-0.2,0.6,0L4.1,3.4z"/>
</g>
</svg>
