<?xml version="1.0" encoding="utf-8"?>
<!-- Generator: Adobe Illustrator 21.1.0, SVG Export Plug-In . SVG Version: 6.00 Build 0)  -->
<svg version="1.1" id="图层_1" xmlns="http://www.w3.org/2000/svg" xmlns:xlink="http://www.w3.org/1999/xlink" x="0px" y="0px"
	 viewBox="0 0 14 12" style="enable-background:new 0 0 14 12;" xml:space="preserve">
<style type="text/css">
	.st0{fill:#597AB9;}
</style>
<g id="Page-1">
	<g id="Artboard" transform="translate(-1077.000000, -539.000000)">
		<g id="账户下拉-copy" transform="translate(1053.000000, 452.000000)">
			<g id="充值" transform="translate(23.000000, 85.000000)">
				<path id="Combined-Shape" class="st0" d="M14,6H2v7h12v-1.5c0-0.3,0.2-0.5,0.5-0.5s0.5,0.2,0.5,0.5V13c0,0.6-0.4,1-1,1H2
					c-0.6,0-1-0.4-1-1V3c0-0.6,0.4-1,1-1h12c0.6,0,1,0.4,1,1v4c0,0.3-0.2,0.5-0.5,0.5S14,7.3,14,7V6z M14,5V3H2v2H14z M9.5,10.8
					C9.3,11,9,11,8.8,10.9L7.1,9.3c0,0,0,0,0,0C7,9.1,7,8.9,7.1,8.8l1.7-1.6C9,7,9.3,7,9.5,7.1c0,0,0,0,0,0c0.2,0.2,0.2,0.5,0,0.7
					L8.6,8.6h6c0.3,0,0.5,0.2,0.5,0.5s-0.2,0.5-0.5,0.5H8.7l0.7,0.6c0,0,0,0,0,0C9.7,10.4,9.7,10.7,9.5,10.8z"/>
			</g>
		</g>
	</g>
</g>
</svg>
