<?xml version="1.0" encoding="utf-8"?>
<!-- Generator: Adobe Illustrator 22.1.0, SVG Export Plug-In . SVG Version: 6.00 Build 0)  -->
<svg version="1.1" id="图层_1" xmlns="http://www.w3.org/2000/svg" xmlns:xlink="http://www.w3.org/1999/xlink" x="0px" y="0px"
	 viewBox="0 0 14 13" style="enable-background:new 0 0 14 13;" xml:space="preserve">
<style type="text/css">
	.st0{fill:#fff;}
</style>
<title>erweima</title>
<desc>Created with Sketch.</desc>
<g>
	<path class="st0" d="M13,13c0.6,0,1-0.4,1-1v-1h-2v2H13z"/>
	<rect x="8" y="11" class="st0" width="2" height="2"/>
	<path class="st0" d="M5,0H1C0.4,0,0,0.4,0,1v4c0,0.6,0.4,1,1,1h4c0.6,0,1-0.4,1-1V1C6,0.4,5.6,0,5,0z"/>
	<path class="st0" d="M5,7H1C0.4,7,0,7.4,0,8v4c0,0.6,0.4,1,1,1h4c0.6,0,1-0.4,1-1V8C6,7.4,5.6,7,5,7z"/>
	<rect x="12" y="7" class="st0" width="2" height="2"/>
	<rect x="10" y="9" class="st0" width="2" height="2"/>
	<path class="st0" d="M13,0H9C8.4,0,8,0.4,8,1v4c0,0.6,0.4,1,1,1h4c0.6,0,1-0.4,1-1V1C14,0.4,13.6,0,13,0z"/>
	<rect x="8" y="7" class="st0" width="2" height="2"/>
</g>
</svg>
