<?xml version="1.0" encoding="utf-8"?>
<!-- Generator: Adobe Illustrator 22.1.0, SVG Export Plug-In . SVG Version: 6.00 Build 0)  -->
<svg version="1.1" id="图层_1" xmlns="http://www.w3.org/2000/svg" xmlns:xlink="http://www.w3.org/1999/xlink" x="0px" y="0px"
	 viewBox="0 0 14 16" style="enable-background:new 0 0 14 16;" xml:space="preserve">
<style type="text/css">
	.st0{fill:#fff;}
</style>
<title>fankui</title>
<desc>Created with Sketch.</desc>
<g id="fankui">
	<g>
		<path class="st0" d="M10.9,0H1.1C0.5,0,0,0.5,0,1.1v11.9C0,13.5,0.5,14,1.1,14H4l8-8l0-4.9c0,0,0,0,0,0C12,0.5,11.5,0,10.9,0z
			 M6.5,6h-4C2.2,6,2,5.8,2,5.5S2.2,5,2.5,5h4C6.8,5,7,5.2,7,5.5S6.8,6,6.5,6z M8.5,3h-6C2.2,3,2,2.8,2,2.5S2.2,2,2.5,2h6
			C8.8,2,9,2.2,9,2.5S8.8,3,8.5,3z"/>
		<path class="st0" d="M13.7,9l-0.5-0.6c-0.4-0.4-1.1-0.4-1.5,0c0,0,0,0,0,0l-0.3,0.3l0,0L11,9l-4.3,4.3l-0.1,0.1l0,0.1l-0.4,1.9
			L6.2,16l0.6-0.1l1.8-0.4l0.1,0l0.1-0.1l4.1-4.1l0,0l0.3-0.3l0.2-0.2l0,0l0.4-0.4C14.1,10,14.1,9.4,13.7,9z M12.8,10.2l-1-1
			l0.5-0.6l1,1L12.8,10.2z"/>
	</g>
</g>
</svg>
