<?xml version="1.0" encoding="utf-8"?>
<!-- Generator: Adobe Illustrator 22.1.0, SVG Export Plug-In . SVG Version: 6.00 Build 0)  -->
<svg version="1.1" id="图层_1" xmlns="http://www.w3.org/2000/svg" xmlns:xlink="http://www.w3.org/1999/xlink" x="0px" y="0px"
	 viewBox="0 0 18 18" style="enable-background:new 0 0 18 18;" xml:space="preserve">
<style type="text/css">
	.st0{fill:#fff;}
</style>
<title>gonggao</title>
<desc>Created with Sketch.</desc>
<g id="gonggao">
	<path class="st0" d="M14,7.8c0-3.1-1.5-4.7-3.1-5.3V2.3c0-1-0.8-1.8-1.9-1.8S7.1,1.3,7.1,2.3v0.3C5.5,3.1,4,4.7,4,7.8
		c0,1.3-0.6,2.9-1.8,4.9l0,0C1.9,13.1,2,13.7,2.5,14c0,0,0,0,0.1,0c1.3,0.7,2.6,1.1,3.9,1.4c0.4,1.2,1.4,2,2.6,2s2.2-0.8,2.6-2
		c1.3-0.3,2.6-0.7,3.9-1.4l0,0c0.5-0.3,0.7-0.9,0.4-1.3c0,0,0,0,0-0.1C14.6,10.7,14,9.1,14,7.8z M8.4,2.3c0-0.3,0.3-0.6,0.6-0.6
		c0.3,0,0.6,0.3,0.6,0.6v0c-0.1,0-0.3,0-0.4,0H8.8C8.7,2.3,8.5,2.3,8.4,2.3L8.4,2.3z M9,16.3c-0.4,0-0.8-0.2-1.1-0.6
		c0.4,0,0.7,0.1,1.1,0.1s0.7,0,1.1-0.1C9.8,16.1,9.4,16.3,9,16.3z"/>
</g>
</svg>
