<?xml version="1.0" encoding="utf-8"?>
<!-- Generator: Adobe Illustrator 22.1.0, SVG Export Plug-In . SVG Version: 6.00 Build 0)  -->
<svg version="1.1" id="图层_1" xmlns="http://www.w3.org/2000/svg" xmlns:xlink="http://www.w3.org/1999/xlink" x="0px" y="0px"
	 viewBox="0 0 16 16" style="enable-background:new 0 0 16 16;" xml:space="preserve">
<style type="text/css">
	.st0{fill:#fff;}
</style>
<title>heiyemoshi</title>
<desc>Created with Sketch.</desc>
<g id="heiyemoshi">
	<path class="st0" d="M7.8,15c2,0,3.7-0.7,5.1-2.1S15,9.8,15,7.8c0-1.4-0.4-2.8-1.2-4C13,2.5,11.9,1.6,10.6,1
		c-0.1-0.1-0.2-0.1-0.2,0c-0.1,0.1-0.1,0.2-0.1,0.3c0.3,0.8,0.5,1.6,0.5,2.4c0,1.9-0.7,3.4-2,4.8s-2.9,2-4.8,2c-1,0-1.9-0.2-2.7-0.5
		c-0.1-0.1-0.2-0.1-0.2,0C1,10.1,1,10.2,1,10.3c0.5,1.4,1.4,2.5,2.6,3.4C4.9,14.6,6.2,15,7.8,15z"/>
</g>
</svg>
