<?xml version="1.0" encoding="utf-8"?>
<!-- Generator: Adobe Illustrator 22.1.0, SVG Export Plug-In . SVG Version: 6.00 Build 0)  -->
<svg version="1.1" id="图层_1" xmlns="http://www.w3.org/2000/svg" xmlns:xlink="http://www.w3.org/1999/xlink" x="0px" y="0px"
	 viewBox="0 0 16 16" style="enable-background:new 0 0 16 16;" xml:space="preserve">
<style type="text/css">
	.st0{fill:#5D6588;}
</style>
<title>help</title>
<desc>Created with Sketch.</desc>
<g id="help">
	<path class="st0" d="M8,16c-4.4,0-8-3.6-8-8s3.6-8,8-8s8,3.6,8,8S12.4,16,8,16z M7.5,9.9v0.5h0.9v-1c1-0.2,1.9-1.1,1.9-2.3V6.1
		c0-1.3-1-2.4-2.4-2.4s-2.4,1-2.4,2.4v0.9c0,0.2,0.1,0.3,0.1,0.5h0.9C6.6,7.3,6.6,7.2,6.6,7.1V6.1c0-0.8,0.7-1.4,1.4-1.4
		s1.4,0.7,1.4,1.4v0.9c0,0.8-0.7,1.4-1.4,1.4c-0.3,0-0.5,0.2-0.5,0.5V9.9z M7.5,11.3v0.9h0.9v-0.9H7.5z"/>
</g>
</svg>
