<?xml version="1.0" encoding="utf-8"?>
<!-- Generator: Adobe Illustrator 22.1.0, SVG Export Plug-In . SVG Version: 6.00 Build 0)  -->
<svg version="1.1" id="图层_1" xmlns="http://www.w3.org/2000/svg" xmlns:xlink="http://www.w3.org/1999/xlink" x="0px" y="0px"
	 viewBox="0 0 13 17" style="enable-background:new 0 0 13 17;" xml:space="preserve">
<style type="text/css">
	.st0{fill:#697FD5;}
</style>
<title>huakuai</title>
<desc>Created with Sketch.</desc>
<g id="huakuai">
	<path id="Combined-Shape" class="st0" d="M6.5,0C10.1,0,13,2.9,13,6.5v4c0,3.6-2.9,6.5-6.5,6.5S0,14.1,0,10.5v-4C0,2.9,2.9,0,6.5,0
		z M3.8,4.5c-0.3,0-0.6,0.3-0.6,0.6c0,0.3,0.3,0.6,0.6,0.6h5.4c0.3,0,0.6-0.3,0.6-0.6c0-0.3-0.3-0.6-0.6-0.6H3.8z M3.8,7.9
		c-0.3,0-0.6,0.3-0.6,0.6s0.3,0.6,0.6,0.6h5.4c0.3,0,0.6-0.3,0.6-0.6S9.5,7.9,9.2,7.9H3.8z M3.8,11.3c-0.3,0-0.6,0.3-0.6,0.6
		c0,0.3,0.3,0.6,0.6,0.6h5.4c0.3,0,0.6-0.3,0.6-0.6c0-0.3-0.3-0.6-0.6-0.6H3.8z"/>
</g>
</svg>
