<?xml version="1.0" encoding="utf-8"?>
<!-- Generator: Adobe Illustrator 22.1.0, SVG Export Plug-In . SVG Version: 6.00 Build 0)  -->
<svg version="1.1" id="图层_1" xmlns="http://www.w3.org/2000/svg" xmlns:xlink="http://www.w3.org/1999/xlink" x="0px" y="0px"
	 viewBox="0 0 18 18" style="enable-background:new 0 0 18 18;" xml:space="preserve">
<style type="text/css">
	.st0{fill:#5D6588;}
</style>
<title>jisuanqi</title>
<desc>Created with Sketch.</desc>
<g id="jisuanqi">
	<path id="qianbao" class="st0" d="M15,1H3C2.4,1,2,1.4,2,2v14c0,0.6,0.4,1,1,1h12c0.6,0,1-0.4,1-1V2C16,1.4,15.6,1,15,1z M6,15
		c-0.6,0-1-0.4-1-1s0.4-1,1-1s1,0.4,1,1S6.6,15,6,15z M6,12c-0.6,0-1-0.4-1-1s0.4-1,1-1s1,0.4,1,1S6.6,12,6,12z M6,9
		C5.4,9,5,8.6,5,8s0.4-1,1-1s1,0.4,1,1S6.6,9,6,9z M9,15c-0.6,0-1-0.4-1-1s0.4-1,1-1s1,0.4,1,1S9.6,15,9,15z M9,12c-0.6,0-1-0.4-1-1
		s0.4-1,1-1s1,0.4,1,1S9.6,12,9,12z M9,9C8.4,9,8,8.6,8,8s0.4-1,1-1s1,0.4,1,1S9.6,9,9,9z M12,15c-0.6,0-1-0.4-1-1s0.4-1,1-1
		s1,0.4,1,1S12.6,15,12,15z M12,12c-0.6,0-1-0.4-1-1s0.4-1,1-1s1,0.4,1,1S12.6,12,12,12z M12,9c-0.6,0-1-0.4-1-1s0.4-1,1-1
		s1,0.4,1,1S12.6,9,12,9z M5.5,3h7C12.8,3,13,3.2,13,3.5v1C13,4.8,12.8,5,12.5,5h-7C5.2,5,5,4.8,5,4.5v-1C5,3.2,5.2,3,5.5,3z"/>
</g>
</svg>
