<?xml version="1.0" encoding="utf-8"?>
<!-- Generator: Adobe Illustrator 22.1.0, SVG Export Plug-In . SVG Version: 6.00 Build 0)  -->
<svg version="1.1" id="图层_1" xmlns="http://www.w3.org/2000/svg" xmlns:xlink="http://www.w3.org/1999/xlink" x="0px" y="0px"
	 viewBox="0 0 14 14" style="enable-background:new 0 0 14 14;" xml:space="preserve">
<style type="text/css">
	.st0{fill:#5D6588;}
</style>
<title>开发者工具</title>
<desc>Created with Sketch.</desc>
<g id="开发者工具">
	<path id="Combined-Shape" class="st0" d="M0,1v10c0,0.6,0.4,1,1,1h12c0.6,0,1-0.4,1-1V1c0-0.6-0.4-1-1-1H1C0.4,0,0,0.4,0,1z
		 M12.6,11H1.4C1.2,11,1,10.8,1,10.6V1.4C1,1.2,1.2,1,1.4,1h11.2C12.8,1,13,1.2,13,1.4v9.2C13,10.8,12.8,11,12.6,11z M0.5,13h13
		c0.3,0,0.5,0.2,0.5,0.5S13.8,14,13.5,14h-13C0.2,14,0,13.8,0,13.5S0.2,13,0.5,13z M5.2,6.6L4.1,6l1.1-0.6C5.5,5.3,5.6,5,5.4,4.8
		S5,4.4,4.8,4.6l-2,1c-0.4,0.2-0.4,0.7,0,0.9l2,1c0.2,0.1,0.5,0,0.7-0.2S5.5,6.7,5.2,6.6z M7.6,3.8l-2,4l0.9,0.4l2-4L7.6,3.8z
		 M8.8,5.4L9.9,6L8.8,6.6C8.5,6.7,8.4,7,8.6,7.2C8.7,7.5,9,7.6,9.2,7.4l2-1c0.4-0.2,0.4-0.7,0-0.9l-2-1C9,4.4,8.7,4.5,8.6,4.8
		C8.4,5,8.5,5.3,8.8,5.4z"/>
</g>
</svg>
