<?xml version="1.0" encoding="utf-8"?>
<!-- Generator: Adobe Illustrator 22.1.0, SVG Export Plug-In . SVG Version: 6.00 Build 0)  -->
<svg version="1.1" id="图层_1" xmlns="http://www.w3.org/2000/svg" xmlns:xlink="http://www.w3.org/1999/xlink" x="0px" y="0px"
	 viewBox="0 0 16 15" style="enable-background:new 0 0 16 15;" xml:space="preserve">
<style type="text/css">
	.st0{fill:#5D6588;}
</style>
<title>lianxikefu</title>
<desc>Created with Sketch.</desc>
<g id="lianxikefu">
	<path class="st0" d="M16,8.9c0-1.3-0.8-2.4-1.9-2.9C14,2.7,11.3,0,8,0C4.7,0,2,2.7,1.9,6C0.8,6.5,0,7.6,0,8.9
		c0,1.8,1.4,3.2,3.2,3.2h0.1c0.2,0,0.5-0.2,0.5-0.5V6.2c0-0.2-0.2-0.5-0.5-0.5H2.9C3.1,3.1,5.3,0.9,8,0.9c2.7,0,4.9,2.1,5.2,4.8
		h-0.5c-0.2,0-0.5,0.2-0.5,0.5v5.3c-1.5,1.6-3.5,2.6-5.7,2.6c-0.3,0-0.5,0.2-0.5,0.5c0,0.3,0.2,0.5,0.5,0.5c2.5,0,4.8-1.1,6.4-2.9
		C14.7,12,16,10.6,16,8.9z"/>
</g>
</svg>
