<?xml version="1.0" encoding="utf-8"?>
<!-- Generator: Adobe Illustrator 22.1.0, SVG Export Plug-In . SVG Version: 6.00 Build 0)  -->
<svg version="1.1" id="图层_1" xmlns="http://www.w3.org/2000/svg" xmlns:xlink="http://www.w3.org/1999/xlink" x="0px" y="0px"
	 viewBox="0 0 16 16" style="enable-background:new 0 0 16 16;" xml:space="preserve">
<style type="text/css">
	.st0{fill:#5D6588;}
</style>
<title>qianbao</title>
<desc>Created with Sketch.</desc>
<g id="qianbao">
	<path class="st0" d="M1,3v10c0,0.6,0.4,1,1,1h12c0.6,0,1-0.4,1-1V3c0-0.6-0.4-1-1-1H2C1.4,2,1,2.4,1,3z M14,10h-2.9
		C9.9,10,9,9.1,9,8s0.9-2,2.1-2H14V10z M11.1,7.6C10.9,8,11,8.4,11.3,8.7s0.7,0.4,1.1,0.2S13,8.4,13,8c0-0.6-0.4-1-1-1
		C11.6,7,11.2,7.2,11.1,7.6z"/>
</g>
</svg>
