<?xml version="1.0" encoding="utf-8"?>
<!-- Generator: Adobe Illustrator 21.1.0, SVG Export Plug-In . SVG Version: 6.00 Build 0)  -->
<svg version="1.1" id="图层_1" xmlns="http://www.w3.org/2000/svg" xmlns:xlink="http://www.w3.org/1999/xlink" x="0px" y="0px"
	 viewBox="0 0 12.9 16" style="enable-background:new 0 0 12.9 16;" xml:space="preserve">
<style type="text/css">
	.st0{fill:#CBD7F0;}
	.st1{fill:none;stroke:#CBD7F0;stroke-width:0.6;}
</style>
<g id="Page-1">
	<g id="Artboard" transform="translate(-1225.000000, -189.000000)">
		<g id="账户下拉-copy-2" transform="translate(1201.000000, 111.000000)">
			<g id="账户安全" transform="translate(23.000000, 78.000000)">
				<path id="Fill-1" class="st0" d="M1.9,3.5v5.2c0,1.5,0.8,2.9,2.3,3.7l3.2,2l3.2-2c1.4-0.8,2.3-2.2,2.3-3.7V4.9V3.5
					c-2.2-0.1-4.1-0.7-5.5-1.9C5.9,2.8,4,3.4,1.9,3.5 M7.4,15.5c-0.1,0-0.2,0-0.2-0.1l-3.5-2.1C2,12.3,1,10.6,1,8.8V3.1
					c0-0.3,0.2-0.5,0.5-0.5c2.2,0,4.3-0.7,5.6-2c0.2-0.2,0.5-0.2,0.7,0c1.4,1.3,3.5,2,5.6,2c0.2,0,0.5,0.2,0.5,0.5V5v3.8
					c0,1.8-1,3.5-2.7,4.5l-3.5,2.1C7.6,15.5,7.5,15.5,7.4,15.5"/>
				<path id="Combined-Shape" class="st0" d="M10.1,10c0,0.3-0.2,0.5-0.4,0.5H5c-0.2,0-0.4-0.2-0.4-0.5V7c0-0.3,0.2-0.5,0.4-0.5h4.6
					C9.8,6.5,10,6.7,10,7v3H10.1z M6.7,8c0,0.3,0.1,0.5,0.4,0.7v0.7c0,0.2,0.2,0.4,0.4,0.4s0.4-0.2,0.4-0.4V8.7
					C8.1,8.5,8.2,8.2,8.2,8c0-0.4-0.3-0.8-0.8-0.8C7,7.2,6.7,7.5,6.7,8z"/>
				<path id="Path" class="st1" d="M8.9,6.8c0-0.8-0.4-1.5-1.1-1.7C7.7,5,7.5,5,7.4,5C7,5,6.6,5.2,6.3,5.5C6,5.9,5.9,6.3,5.9,6.8
					H8.9z"/>
			</g>
		</g>
	</g>
</g>
</svg>
