<?xml version="1.0" encoding="utf-8"?>
<!-- Generator: Adobe Illustrator 22.1.0, SVG Export Plug-In . SVG Version: 6.00 Build 0)  -->
<svg version="1.1" id="图层_1" xmlns="http://www.w3.org/2000/svg" xmlns:xlink="http://www.w3.org/1999/xlink" x="0px" y="0px"
	 viewBox="0 0 14 13" style="enable-background:new 0 0 14 13;" xml:space="preserve">
<style type="text/css">
	.st0{fill:#CBD7F0;}
</style>
<title>身份认证</title>
<desc>Created with Sketch.</desc>
<g>
	<path class="st0" d="M8.5,6h2C10.8,6,11,5.8,11,5.5S10.8,5,10.5,5h-2C8.2,5,8,5.2,8,5.5S8.2,6,8.5,6z"/>
	<g>
		<path class="st0" d="M5,7c1.1,0,2-0.9,2-2S6.1,3,5,3S3,3.9,3,5S3.9,7,5,7z M5,4c0.6,0,1,0.4,1,1S5.6,6,5,6S4,5.6,4,5S4.4,4,5,4z"
			/>
		<path class="st0" d="M5,7c-1.5,0-2.8,1.3-3,3h1c0.2-1.1,1-2,2-2s1.8,0.9,2,2h1C7.7,8.3,6.5,7,5,7z"/>
	</g>
	<path class="st0" d="M13,0H1C0.4,0,0,0.4,0,1v11c0,0.6,0.4,1,1,1h12c0.6,0,1-0.4,1-1V1C14,0.4,13.6,0,13,0z M13,11.6
		c0,0.2-0.2,0.4-0.4,0.4H1.4C1.2,12,1,11.8,1,11.6V1.4C1,1.2,1.2,1,1.4,1h11.2C12.8,1,13,1.2,13,1.4V11.6z"/>
	<path class="st0" d="M11.5,7h-3C8.2,7,8,7.2,8,7.5S8.2,8,8.5,8h3C11.8,8,12,7.8,12,7.5S11.8,7,11.5,7z"/>
</g>
</svg>
