<?xml version="1.0" encoding="utf-8"?>
<!-- Generator: Adobe Illustrator 22.1.0, SVG Export Plug-In . SVG Version: 6.00 Build 0)  -->
<svg version="1.1" id="图层_1" xmlns="http://www.w3.org/2000/svg" xmlns:xlink="http://www.w3.org/1999/xlink" x="0px" y="0px"
	 viewBox="0 0 14 14" style="enable-background:new 0 0 14 14;" xml:space="preserve">
<style type="text/css">
	.st0{fill:#CBD7F0;}
</style>
<title>退出登录</title>
<desc>Created with Sketch.</desc>
<g id="退出登录">
	<path id="Shape" class="st0" d="M11.5,9.3L11.5,9.3c-0.2-0.2-0.2-0.5,0-0.8c0,0,0,0,0,0L12.1,8H7.6C7.3,8,7.1,7.8,7.1,7.5l0,0
		C7.1,7.2,7.3,7,7.6,7h4.6l-0.7-0.7c-0.2-0.2-0.2-0.5,0-0.7c0,0,0,0,0,0l0,0c0.2-0.2,0.6-0.2,0.8,0l1.6,1.6c0.2,0.2,0.2,0.4,0,0.6
		c0,0,0,0,0,0l-1.6,1.6C12,9.5,11.7,9.5,11.5,9.3z M9.7,1H1.4C1.2,1,1,1.2,1,1.4v11.2C1,12.8,1.2,13,1.4,13h8.3
		c0.2,0,0.4-0.2,0.4-0.4c0,0,0,0,0,0l0-1.1c0-0.3,0.2-0.5,0.5-0.5c0,0,0,0,0,0l0,0c0.3,0,0.5,0.2,0.5,0.5V13c0,0.6-0.4,1-1,1H1
		c-0.6,0-1-0.4-1-1V1c0-0.6,0.4-1,1-1h9.1c0.6,0,1,0.4,1,1v2.5c0,0.3-0.2,0.5-0.5,0.5l0,0c-0.3,0-0.5-0.2-0.5-0.5V1.4
		C10.1,1.2,9.9,1,9.7,1z"/>
</g>
</svg>
