<?xml version="1.0" encoding="utf-8"?>
<!-- Generator: Adobe Illustrator 21.1.0, SVG Export Plug-In . SVG Version: 6.00 Build 0)  -->
<svg version="1.1" id="图层_1" xmlns="http://www.w3.org/2000/svg" xmlns:xlink="http://www.w3.org/1999/xlink" x="0px" y="0px"
	 viewBox="0 0 15 12" style="enable-background:new 0 0 15 12;" xml:space="preserve">
<style type="text/css">
	.st0{fill:#CBD7F0;}
</style>
<g id="Page-1">
	<g id="Artboard" transform="translate(-1077.000000, -572.000000)">
		<g id="账户下拉-copy" transform="translate(1053.000000, 452.000000)">
			<g id="提现" transform="translate(24.000000, 118.000000)">
				<g id="Combined-Shape" transform="translate(0.000000, 2.000000)">
					<path class="st0" d="M13.6,11.4v0.2h-0.4c-0.5,0.2-1,0.4-1.6,0.4s-1.1-0.1-1.6-0.4H0V0h13.6v1V6C14.5,6.6,15,7.6,15,8.7
						S14.5,10.8,13.6,11.4z M9,10.6c-0.4-0.5-0.6-1.2-0.6-1.9c0-1.8,1.5-3.3,3.3-3.3c0.3,0,0.7,0.1,1,0.1V1.4c0-0.2-0.2-0.4-0.4-0.4
						H1.4C1.1,1,1,1.1,1,1.4v8.9c0,0.2,0.2,0.4,0.4,0.4H9z M1,2.9h11.7v1H1V2.9z M1,3.9v-1V3.9z M12.7,2.9v1V2.9z M2.4,7.7h2.9
						c0.3,0,0.5,0.2,0.5,0.5c0,0.3-0.2,0.5-0.5,0.5H2.4c-0.3,0-0.5-0.2-0.5-0.5C1.9,8,2.2,7.7,2.4,7.7z M11.7,11.2
						c1.4,0,2.5-1.1,2.5-2.5s-1.1-2.5-2.5-2.5S9.2,7.3,9.2,8.7S10.3,11.2,11.7,11.2z M13.4,8.6l-1.3,1.1V9.1c0,0-1.3-0.1-2.1,0.8
						c0,0,0.2-1.7,2.1-1.7V7.6L13.4,8.6z"/>
				</g>
			</g>
		</g>
	</g>
</g>
</svg>
