<?xml version="1.0" encoding="utf-8"?>
<!-- Generator: Adobe Illustrator 21.1.0, SVG Export Plug-In . SVG Version: 6.00 Build 0)  -->
<svg version="1.1" id="图层_1" xmlns="http://www.w3.org/2000/svg" xmlns:xlink="http://www.w3.org/1999/xlink" x="0px" y="0px"
	 viewBox="0 0 14 13" style="enable-background:new 0 0 14 13;" xml:space="preserve">
<style type="text/css">
	.st0{fill:#CBD7F0;}
</style>
<g id="Page-1">
	<g id="Artboard" transform="translate(-1225.000000, -254.000000)">
		<g id="账户下拉-copy-2" transform="translate(1201.000000, 111.000000)">
			<g id="邀请好友" transform="translate(23.000000, 142.000000)">
				<path id="Rectangle-3" class="st0" d="M3,8v5h10V8H3z M12.5,7H13c0.6,0,1,0.4,1,1v5c0,0.6-0.4,1-1,1H3c-0.6,0-1-0.4-1-1V8
					c0-0.6,0.4-1,1-1H12.5z"/>
				<path id="Combined-Shape" class="st0" d="M7,4.2c-0.3-0.4-0.6-0.7-1.1-1c-1.2-0.8-2.4-1-2.6-0.6c-0.1,0.2,0,0.7,0.4,1.2
					C3.9,4,4.1,4.2,4.4,4.4c-0.8,0-1.5,0-1.5-0.1C2.2,3.5,2,2.6,2.5,1.9c0.7-1,2.5-0.7,4,0.4c0.6,0.4,1.1,0.9,1.4,1.4
					C8,3.9,7.6,4.1,7,4.2z"/>
				<path id="Oval-Copy" class="st0" d="M9.2,2.3c1.6-1.1,3.3-1.4,4-0.4c0.4,0.6,0.3,1.5-0.4,2.3c0,0,0,0.1-0.1,0.1
					c0,0,0,0.1-0.1,0.1C12.6,4.7,12.5,5,12.3,5C11.5,5,9,5,8.5,5C8.4,5,8.3,4.9,8.2,4.9C7.7,4.7,7.4,4.2,7.8,3.7
					C8.1,3.2,8.6,2.7,9.2,2.3z M11.8,4c0-0.1,0.1-0.1,0.1-0.2c0,0,0.1-0.1,0.1-0.1c0.4-0.5,0.5-1,0.4-1.2c-0.3-0.4-1.5-0.2-2.6,0.6
					C9.4,3.4,9,3.7,8.8,4c0.2,0.1,0.4,0.1,0.7,0.2c0.1,0,0.2,0,0.3,0.1c0.2,0,0.7,0.1,0.7,0.1c0.2,0,0.4,0.1,0.5,0.1
					C11.5,4.5,11.6,4.4,11.8,4z"/>
				<path id="Rectangle-3-Copy" class="st0" d="M2,5v2h12V5H2z M2,4h12c0.6,0,1,0.4,1,1v2c0,0.6-0.4,1-1,1H2C1.4,8,1,7.6,1,7V5
					C1,4.4,1.4,4,2,4z"/>
				<polygon id="Rectangle-4" class="st0" points="7.5,5 8.5,5 8.5,13 7.5,13 				"/>
			</g>
		</g>
	</g>
</g>
</svg>
