<?xml version="1.0" encoding="utf-8"?>
<!-- Generator: Adobe Illustrator 21.1.0, SVG Export Plug-In . SVG Version: 6.00 Build 0)  -->
<svg version="1.1" id="图层_1" xmlns="http://www.w3.org/2000/svg" xmlns:xlink="http://www.w3.org/1999/xlink" x="0px" y="0px"
	 viewBox="0 0 16 16" style="enable-background:new 0 0 16 16;" xml:space="preserve">
<style type="text/css">
	.st0{fill:#CBD7F0;}
</style>
<g id="资产">
	<g id="Group" transform="translate(0.000000, 2.000000)">
		<path id="Combined-Shape" class="st0" d="M5,4h5.5L9.8,1H5.7L5,4z M5.6,0H10c0.4,0,0.7,0.3,0.8,0.6L11.5,4c0.1,0.4-0.2,0.9-0.6,1
			c-0.1,0-0.1,0-0.2,0h-6C4.3,5,3.9,4.6,3.9,4.2c0-0.1,0-0.1,0-0.2l0.8-3.4C4.9,0.3,5.2,0,5.6,0z M1.6,6H6c0.4,0,0.7,0.3,0.8,0.6
			L7.6,10c0.1,0.4-0.2,0.9-0.6,1c-0.1,0-0.1,0-0.2,0h-6C0.4,11,0,10.6,0,10.2c0-0.1,0-0.1,0-0.2l0.8-3.4C1,6.3,1.3,6,1.6,6z M1.8,7
			l-0.7,3h5.5L5.9,7H1.8z M14.4,6c0.4,0,0.7,0.3,0.8,0.6L16,10c0.1,0.4-0.2,0.9-0.6,1c-0.1,0-0.1,0-0.2,0h-6c-0.4,0-0.8-0.4-0.8-0.8
			c0-0.1,0-0.1,0-0.2l0.8-3.4C9.4,6.3,9.7,6,10,6H14.4z M9.5,10h5.5l-0.7-3h-4.1L9.5,10z"/>
	</g>
</g>
</svg>
