<?xml version="1.0" encoding="utf-8"?>
<!-- Generator: Adobe Illustrator 22.1.0, SVG Export Plug-In . SVG Version: 6.00 Build 0)  -->
<svg version="1.1" id="图层_1" xmlns="http://www.w3.org/2000/svg" xmlns:xlink="http://www.w3.org/1999/xlink" x="0px" y="0px"
	 viewBox="0 0 14 14" style="enable-background:new 0 0 14 14;" xml:space="preserve">
<style type="text/css">
	.st0{fill:#666B93;}
</style>
<title>全屏</title>
<desc>Created with Sketch.</desc>
<g id="全屏">
	<path id="Combined-Shape" class="st0" d="M12.2,1.1h-3c-0.3,0-0.5-0.2-0.5-0.5V0.5C8.6,0.2,8.8,0,9.1,0h4.4C13.8,0,14,0.2,14,0.5
		v0.1v4.3c0,0.3-0.2,0.5-0.5,0.5h-0.1c-0.3,0-0.5-0.2-0.5-0.5v-3L9,5.7c-0.2,0.2-0.5,0.2-0.7,0L8.3,5.7C8.1,5.5,8.1,5.2,8.3,5
		L12.2,1.1z M1.8,12.9h3c0.3,0,0.5,0.2,0.5,0.5v0.1c0,0.3-0.2,0.5-0.5,0.5H0.5C0.2,14,0,13.8,0,13.5v-0.1V9.1c0-0.3,0.2-0.5,0.5-0.5
		h0.1c0.3,0,0.5,0.2,0.5,0.5v3L5,8.3c0.2-0.2,0.5-0.2,0.7,0l0.1,0.1c0.2,0.2,0.2,0.5,0,0.7L1.8,12.9z M12.9,12.2v-3
		c0-0.3,0.2-0.5,0.5-0.5h0.1c0.3,0,0.5,0.2,0.5,0.5v4.4c0,0.1-0.1,0.3-0.1,0.4c-0.1,0.1-0.2,0.1-0.4,0.1H9.1c-0.3,0-0.5-0.2-0.5-0.5
		v-0.1c0-0.3,0.2-0.5,0.5-0.5h3L8.3,9c-0.2-0.2-0.2-0.5,0-0.7l0.1-0.1c0.2-0.2,0.5-0.2,0.7,0L12.9,12.2z M1.1,1.8v3
		c0,0.3-0.2,0.5-0.5,0.5H0.5C0.2,5.4,0,5.2,0,4.9V0.5C0,0.2,0.2,0,0.5,0h0.1h4.3c0.3,0,0.5,0.2,0.5,0.5v0.1c0,0.3-0.2,0.5-0.5,0.5
		h-3L5.7,5c0.2,0.2,0.2,0.5,0,0.7L5.7,5.7C5.5,5.9,5.2,5.9,5,5.7L1.1,1.8z"/>
</g>
</svg>
