<?xml version="1.0" encoding="utf-8"?>
<!-- Generator: Adobe Illustrator 21.1.0, SVG Export Plug-In . SVG Version: 6.00 Build 0)  -->
<svg version="1.1" id="图层_1" xmlns="http://www.w3.org/2000/svg" xmlns:xlink="http://www.w3.org/1999/xlink" x="0px" y="0px"
	 viewBox="0 0 15 18" style="enable-background:new 0 0 15 18;" xml:space="preserve">
<style type="text/css">
	.st0{fill:#7E9EFD;}
</style>
<g id="Page-1">
	<g id="_x31_.7客服" transform="translate(-1086.000000, -759.000000)">
		<g id="Group-3" transform="translate(1066.000000, 391.000000)">
			<g id="经理人_o-copy" transform="translate(20.000000, 368.000000)">
				<path id="Shape" class="st0" d="M4.6,16.9L5.7,18H0v-4.4l2.4-2.4H4l0.9,1.1H2.9l-1.7,1.7v2.8H4.6z M10.3,16.9h3.4v-2.8L12,12.4
					h-1.9l0.9-1.1h1.6l2.4,2.4V18H9.3L10.3,16.9z M7.8,13l1.4,3.3L7.4,18l-1.7-1.7L7.1,13l-1.4-1.8h3.4L7.8,13z M12.6,5.1
					c0,2.8-2.3,5.1-5.2,5.1S2.3,7.9,2.3,5.1S4.6,0,7.4,0S12.6,2.3,12.6,5.1z M11.4,5.1c0-2.1-1.8-3.9-4-3.9s-4,1.8-4,3.9
					S5.3,9,7.4,9S11.4,7.2,11.4,5.1z"/>
			</g>
		</g>
	</g>
</g>
</svg>
