<?xml version="1.0" encoding="utf-8"?>
<!-- Generator: Adobe Illustrator 22.1.0, SVG Export Plug-In . SVG Version: 6.00 Build 0)  -->
<svg version="1.1" id="图层_1" xmlns="http://www.w3.org/2000/svg" xmlns:xlink="http://www.w3.org/1999/xlink" x="0px" y="0px"
	 viewBox="0 0 14 14" style="enable-background:new 0 0 14 14;" xml:space="preserve">
<style type="text/css">
	.st0{fill:#5D6588;}
</style>
<title>未选择</title>
<desc>Created with Sketch.</desc>
<g id="未选择">
	<path id="Rectangle-10-Copy" class="st0" d="M2,1C1.4,1,1,1.4,1,2v10c0,0.6,0.4,1,1,1h10c0.6,0,1-0.4,1-1V2c0-0.6-0.4-1-1-1H2z
		 M2,0h10c1.1,0,2,0.9,2,2v10c0,1.1-0.9,2-2,2H2c-1.1,0-2-0.9-2-2V2C0,0.9,0.9,0,2,0z"/>
</g>
</svg>
