<?xml version="1.0" encoding="utf-8"?>
<!-- Generator: Adobe Illustrator 22.1.0, SVG Export Plug-In . SVG Version: 6.00 Build 0)  -->
<svg version="1.1" id="图层_1" xmlns="http://www.w3.org/2000/svg" xmlns:xlink="http://www.w3.org/1999/xlink" x="0px" y="0px"
	 viewBox="0 0 14 14" style="enable-background:new 0 0 14 14;" xml:space="preserve">
<style type="text/css">
	.st0{fill:#666B93;}
</style>
<title>设置</title>
<desc>Created with Sketch.</desc>
<path id="Shape" class="st0" d="M1.3,4.7C1.4,4.5,1.5,4.3,1.7,4S2,3.5,2.1,3.3L1.8,2.1l3.6-2l0.9,1c0.5-0.1,1.1-0.1,1.6,0l0.9-1
	l3.6,2l-0.4,1.3c0.3,0.5,0.6,0.9,0.8,1.4L14,4.9l0,4l-1.3,0.3c-0.1,0.2-0.2,0.5-0.3,0.7c-0.2,0.3-0.3,0.5-0.5,0.7l0.4,1.3l-3.6,2
	l-0.9-1c-0.5,0.1-1.1,0.1-1.6,0l-0.9,1l-3.6-2l0.4-1.3c-0.3-0.5-0.6-0.9-0.8-1.4L0,9.1l0-4L1.3,4.7z M5.5,9.5
	c1.4,0.8,3.2,0.3,3.9-1.1s0.3-3.1-1-3.9S5.3,4.3,4.5,5.6S4.2,8.7,5.5,9.5z"/>
</svg>
