<?xml version="1.0" encoding="utf-8"?>
<!-- Generator: Adobe Illustrator 22.1.0, SVG Export Plug-In . SVG Version: 6.00 Build 0)  -->
<svg version="1.1" id="图层_1" xmlns="http://www.w3.org/2000/svg" xmlns:xlink="http://www.w3.org/1999/xlink" x="0px" y="0px"
	 viewBox="0 0 14 14" style="enable-background:new 0 0 14 14;" xml:space="preserve">
<style type="text/css">
	.st0{fill:#7E9EFD;}
</style>
<title>选中</title>
<desc>Created with Sketch.</desc>
<g id="选中">
	<path id="Combined-Shape" class="st0" d="M2,0h10c1.1,0,2,0.9,2,2v10c0,1.1-0.9,2-2,2H2c-1.1,0-2-0.9-2-2V2C0,0.9,0.9,0,2,0z
		 M6.1,9L4.1,6.9c-0.2-0.2-0.7-0.2-0.9,0s-0.2,0.7,0,0.9l2.5,2.5c0.2,0.2,0.7,0.2,0.9,0c0.1-0.1,0.1-0.1,0.1-0.2c0,0,0,0,0,0l5-5
		c0.2-0.2,0.2-0.7,0-0.9c-0.2-0.2-0.7-0.2-0.9,0L6.1,9z"/>
</g>
</svg>
