<?xml version="1.0" encoding="utf-8"?>
<!-- Generator: Adobe Illustrator 22.1.0, SVG Export Plug-In . SVG Version: 6.00 Build 0)  -->
<svg version="1.1" id="图层_1" xmlns="http://www.w3.org/2000/svg" xmlns:xlink="http://www.w3.org/1999/xlink" x="0px" y="0px"
	 viewBox="0 0 18 14" style="enable-background:new 0 0 18 14;" xml:space="preserve">
<style type="text/css">
	.st0{fill:#7E9EFD;}
</style>
<title>转入</title>
<desc>Created with Sketch.</desc>
<g id="转入">
	<path id="Rectangle-2" class="st0" d="M2,10.1h1V11c0,1.1,0.9,2,2,2h10c1.1,0,2-0.9,2-2V3c0-1.1-0.9-2-2-2H5C3.9,1,3,1.9,3,3v1.1H2
		V3c0-1.7,1.4-3,3-3h10c1.7,0,3,1.3,3,3v8c0,1.7-1.4,3-3,3H5c-1.7,0-3-1.3-3-3V10.1z M6.7,4.3C6.5,4,6.5,3.5,6.7,3.2
		c0.3-0.3,0.7-0.3,1,0l2.9,3.3c0.3,0.3,0.3,0.8,0,1.1l-2.9,3.1c-0.1,0.1-0.3,0.2-0.5,0.2c-0.2,0-0.4-0.1-0.5-0.2
		c-0.1-0.1-0.2-0.3-0.2-0.5c0-0.2,0.1-0.4,0.2-0.5l1.8-2H0.7C0.3,7.7,0,7.5,0,7.1c0-0.4,0.3-0.7,0.7-0.7h7.8L6.7,4.3z"/>
</g>
</svg>
