<?xml version="1.0" encoding="utf-8"?>
<!-- Generator: Adobe Illustrator 21.1.0, SVG Export Plug-In . SVG Version: 6.00 Build 0)  -->
<svg version="1.1" id="图层_1" xmlns="http://www.w3.org/2000/svg" xmlns:xlink="http://www.w3.org/1999/xlink" x="0px" y="0px"
	 viewBox="0 0 14 14" style="enable-background:new 0 0 14 14;" xml:space="preserve">
<style type="text/css">
	.st0{fill:#667AA0;}
</style>
<g id="Page-1">
	<g id="_x30_1-数字合约的新手指导" transform="translate(-1083.000000, -1164.000000)">
		<path id="Shape" class="st0" d="M1089.3,1177.8c0.1,0.1,0.3,0.2,0.5,0.2h0c0.2,0,0.4-0.1,0.5-0.2l6.5-6.6c0.2-0.2,0.2-0.4,0.2-0.7
			c-0.1-0.2-0.3-0.4-0.5-0.5c-0.2-0.1-0.5,0-0.7,0.2l-6,6l-5.6-6c-0.3-0.3-0.7-0.3-1,0s-0.3,0.7,0,1L1089.3,1177.8L1089.3,1177.8z
			 M1089.3,1171.8c0.1,0.1,0.3,0.2,0.5,0.2h0c0.2,0,0.4-0.1,0.5-0.2l6.5-6.6c0.2-0.2,0.2-0.4,0.2-0.7c-0.1-0.2-0.3-0.4-0.5-0.5
			c-0.2-0.1-0.5,0-0.7,0.2l-6,6l-5.6-6c-0.3-0.3-0.7-0.3-1,0s-0.3,0.7,0,1L1089.3,1171.8z"/>
	</g>
</g>
</svg>
