<?xml version="1.0" encoding="utf-8"?>
<!-- Generator: Adobe Illustrator 21.1.0, SVG Export Plug-In . SVG Version: 6.00 Build 0)  -->
<svg version="1.1" id="图层_1" xmlns="http://www.w3.org/2000/svg" xmlns:xlink="http://www.w3.org/1999/xlink" x="0px" y="0px"
	 viewBox="0 0 12 16" style="enable-background:new 0 0 12 16;" xml:space="preserve">
<style type="text/css">
	.st0{fill:#7889A9;}
</style>
<g id="鼠标">
	<path id="Combined-Shape" class="st0" d="M6,1C3.2,1,1,3.2,1,6v4c0,2.8,2.2,5,5,5s5-2.2,5-5V6C11,3.2,8.8,1,6,1z M6,0
		c3.3,0,6,2.7,6,6v4c0,3.3-2.7,6-6,6s-6-2.7-6-6V6C0,2.7,2.7,0,6,0z M5.5,3.5v3.2C5.5,7,5.7,7.2,6,7.2S6.5,7,6.5,6.7V3.5
		C6.5,3.2,6.3,3,6,3S5.5,3.2,5.5,3.5z"/>
</g>
</svg>
